<?xml version="1.0" encoding="UTF-8" standalone="no"?>
<!-- Created with Inkscape (http://www.inkscape.org/) -->

<svg
   width="550"
   height="331.73544"
   viewBox="0 0 145.52083 87.771669"
   version="1.1"
   id="svg1"
   xml:space="preserve"
   inkscape:version="1.3.1 (9b9bdc1480, 2023-11-25, custom)"
   sodipodi:docname="AIADMK Two Leaves.svg"
   xmlns:inkscape="http://www.inkscape.org/namespaces/inkscape"
   xmlns:sodipodi="http://sodipodi.sourceforge.net/DTD/sodipodi-0.dtd"
   xmlns="http://www.w3.org/2000/svg"
   xmlns:svg="http://www.w3.org/2000/svg"><sodipodi:namedview
     id="namedview1"
     pagecolor="#ffffff"
     bordercolor="#000000"
     borderopacity="0.25"
     inkscape:showpageshadow="2"
     inkscape:pageopacity="0.0"
     inkscape:pagecheckerboard="0"
     inkscape:deskcolor="#d1d1d1"
     inkscape:document-units="mm"
     inkscape:zoom="1.4859428"
     inkscape:cx="270.53532"
     inkscape:cy="185.74067"
     inkscape:window-width="1872"
     inkscape:window-height="1016"
     inkscape:window-x="0"
     inkscape:window-y="0"
     inkscape:window-maximized="1"
     inkscape:current-layer="layer1" /><defs
     id="defs1" /><g
     inkscape:label="Layer 1"
     inkscape:groupmode="layer"
     id="layer1"
     transform="translate(-308.81883,-15.249563)"><path
       style="fill:#000000;stroke-width:0.436517"
       d="m 382.38323,100.76523 c -0.81419,-0.21732 -1.45885,-0.70185 -2.88245,-2.166432 -1.65159,-1.69915 -1.72726,-1.792281 -2.15219,-2.648738 -0.56354,-1.13582 -0.4878,-1.647444 0.55594,-3.754816 l 0.52187,-1.053678 0.0343,-4.894319 c 0.0625,-8.931625 -0.30086,-12.826732 -1.49595,-16.039601 -0.10639,-0.285849 -0.2245,-0.620535 -0.26261,-0.743746 -0.0381,-0.12321 -0.35298,-0.772871 -0.6997,-1.443689 -1.22442,-2.368876 -2.94133,-4.271051 -4.60457,-5.10145 -0.77439,-0.386627 -0.67863,-0.386794 -2.75353,0.0048 -1.38518,0.261404 -2.3417,0.363227 -4.61982,0.491772 -3.47465,0.196065 -8.48652,0.250255 -9.58609,0.103654 -0.50817,-0.06776 -1.4177,-0.174873 -2.02115,-0.238038 -1.34942,-0.141247 -2.47984,-0.31843 -2.94234,-0.461189 -0.19211,-0.0593 -0.73907,-0.223711 -1.21549,-0.36536 -1.18551,-0.352483 -4.30253,-1.610923 -5.77475,-2.33145 -6.96717,-3.409826 -13.49692,-9.696878 -17.71507,-17.056622 -0.44661,-0.779235 -2.43198,-4.733645 -2.60938,-5.19728 -0.0852,-0.222329 -0.24402,-0.612124 -0.35325,-0.866214 -0.6698,-1.558282 -1.56226,-4.150665 -2.52482,-7.333938 -0.61253,-2.025702 -1.74292,-4.409567 -2.9063,-6.129066 -0.2393,-0.353677 -1.02797,-1.237215 -1.7526,-1.963418 -1.05072,-1.052981 -1.40357,-1.493079 -1.74242,-2.173224 -0.23369,-0.469071 -0.42489,-0.952301 -0.42489,-1.073843 0,-0.12155 0.14145,-0.352084 0.31435,-0.512312 0.3111,-0.288318 0.33105,-0.290813 1.93453,-0.241703 1.57287,0.04818 2.86655,0.189907 3.81461,0.417933 2.31441,0.556651 6.46232,0.558509 10.51006,0.0047 0.86769,-0.118716 2.57542,-0.286581 4.6198,-0.454114 1.59023,-0.130317 6.31263,-0.135154 7.39168,-0.0075 0.99192,0.11728 2.19244,0.327578 2.65639,0.465325 0.58836,0.174684 1.3669,0.378957 1.79018,0.469706 0.51868,0.111212 3.70376,1.21112 4.35427,1.503678 0.27309,0.122821 0.74339,0.330694 1.04513,0.461948 1.34235,0.583925 3.69023,1.831044 5.04505,2.679743 5.95733,3.731908 11.53631,9.41104 14.83257,15.09885 0.54508,0.940561 1.97982,3.895295 1.97982,4.077295 0,0.08663 0.0356,0.193145 0.0792,0.236679 0.086,0.08594 0.24157,0.498336 0.66019,1.749519 0.44433,1.327993 0.61541,1.920711 0.80009,2.771883 0.0965,0.444656 0.23615,1.068329 0.31037,1.385941 0.24786,1.060568 0.32277,2.163911 0.45486,6.698717 l 0.13121,4.50431 0.41552,0.404232 c 0.22853,0.222325 0.73291,0.820014 1.12085,1.328193 0.7649,1.002021 0.87293,1.154836 2.0506,2.900734 0.87971,1.304173 1.10186,1.545942 1.19355,1.29897 0.0321,-0.08656 0.0718,-4.886899 0.088,-10.66743 l 0.0296,-10.510055 0.33489,-0.604355 c 0.27416,-0.49478 0.4049,-0.617493 0.72109,-0.676809 0.84501,-0.158524 1.4416,0.295694 1.6523,1.257975 0.0774,0.353813 0.12137,3.114314 0.12137,7.63244 0,10.911251 0.14411,28.573385 0.23432,28.719364 0.0572,0.09241 0.21245,0.06325 0.5296,-0.09944 1.25104,-0.641756 2.14311,-2.086045 2.76633,-4.478778 0.19931,-0.765197 0.36909,-3.257625 0.50671,-7.438676 0.0604,-1.837766 0.18496,-3.75072 0.28179,-4.331069 0.0954,-0.571696 0.28737,-1.741086 0.42661,-2.598637 0.41326,-2.545042 0.76489,-4.286422 1.13108,-5.601512 0.12377,-0.444659 0.3095,-1.120303 0.41262,-1.501439 0.23289,-0.860746 1.28913,-4.015523 1.52741,-4.562055 0.097,-0.222328 0.21874,-0.508179 0.27069,-0.635223 0.20086,-0.491265 1.75317,-3.612441 2.09659,-4.215571 0.19894,-0.349373 0.40572,-0.652547 0.4595,-0.673722 0.0537,-0.02118 0.0978,-0.08092 0.0978,-0.132762 0,-0.192033 1.40602,-2.162526 2.35011,-3.293593 1.21351,-1.453855 3.47688,-3.615419 4.56143,-4.356233 0.1488,-0.101648 0.80056,-0.696274 1.44834,-1.321395 1.49004,-1.437919 2.65425,-2.526965 3.25327,-3.043241 1.08568,-0.93572 1.82832,-1.567435 2.0025,-1.703404 1.37767,-1.07546 2.13413,-1.646975 2.55944,-1.933702 0.28267,-0.190567 0.53127,-0.385465 0.55245,-0.433106 0.0211,-0.04764 0.078,-0.08662 0.12604,-0.08662 0.0481,0 0.52458,-0.287388 1.0587,-0.63864 2.03142,-1.335875 4.74618,-2.504763 8.07412,-3.476475 0.34936,-0.102003 0.76515,-0.231289 0.92395,-0.287285 0.15882,-0.05599 0.52263,-0.148519 0.80847,-0.205608 0.28585,-0.05709 1.14341,-0.233775 1.90568,-0.392637 1.32908,-0.27699 3.01793,-0.519967 5.37052,-0.772662 0.60346,-0.06481 2.63039,-0.171309 4.5043,-0.236644 3.24409,-0.113114 6.12057,-0.352823 6.87196,-0.572682 0.19057,-0.05576 0.60635,-0.158752 0.92397,-0.228867 1.9216,-0.424216 3.88784,-1.316046 5.28927,-2.399061 1.34995,-1.043236 2.62282,-1.248514 3.74634,-0.604179 0.70175,0.402459 0.77972,0.594396 0.69487,1.710505 -0.0486,0.63903 -0.16767,0.986793 -0.69877,2.040742 -0.60569,1.201972 -1.04774,2.474224 -1.8259,5.255028 -0.42023,1.501751 -0.50487,1.828673 -0.71764,2.771882 -0.0932,0.412894 -0.22807,1.010581 -0.29982,1.328193 -0.13969,0.618185 -0.27543,1.599936 -0.52703,3.811339 -0.39091,3.436044 -1.85118,8.722418 -3.71677,13.455179 -1.11504,2.828732 -3.28406,7.186524 -4.77131,9.586093 -1.53609,2.478328 -3.01611,4.555441 -4.73039,6.638784 -3.61604,4.394474 -8.54296,8.577527 -13.15632,11.169953 -1.05213,0.591236 -4.06188,2.056419 -4.22425,2.056419 -0.0336,0 -0.38732,0.146927 -0.78593,0.326505 -1.38766,0.625153 -4.69767,1.60537 -6.49948,1.924726 -0.57171,0.101325 -1.27334,0.233056 -1.5592,0.29272 -1.18411,0.247164 -4.30324,0.376456 -9.58609,0.397351 -5.77063,0.02282 -6.27888,0.05736 -7.74689,0.526336 -1.45828,0.465864 -2.63836,1.420722 -3.78734,3.064496 -1.12188,1.605004 -1.54926,2.457019 -1.92086,3.829424 -0.45021,1.662689 -0.51981,2.609288 -0.51981,7.069325 0,2.668219 -0.045,4.377056 -0.12125,4.595526 -0.16182,0.46423 -0.50556,0.60422 -1.09638,0.44652 z m -1.33147,-12.26161 c 0.31909,-0.382739 1.65287,-1.923556 1.74093,-2.011164 0.0319,-0.03178 0.29164,-0.369586 0.57718,-0.750719 0.28553,-0.381136 0.54555,-0.718956 0.57784,-0.750717 0.29401,-0.289262 0.78517,-1.090725 1.0528,-1.717925 0.52829,-1.238062 0.41842,-1.977919 -0.29371,-1.977919 -0.45732,0 -0.66782,0.169474 -1.3651,1.099039 -0.67118,0.894738 -0.97547,1.065704 -1.55841,0.875597 -0.23902,-0.07795 -0.49431,-0.166919 -0.56733,-0.197715 -0.0856,-0.03615 -0.15923,0.161183 -0.2074,0.556105 -0.19646,1.61059 -0.52107,2.480673 -1.15244,3.089025 -0.40245,0.387771 -0.41307,0.420475 -0.41208,1.270446 4.4e-4,0.479838 0.0344,1.149918 0.075,1.489064 l 0.074,0.616639 0.58903,-0.626638 c 0.32398,-0.344648 0.7153,-0.778052 0.86957,-0.963118 z m 8.32385,-8.939374 c 0.15881,-0.05238 0.89655,-0.160202 1.63944,-0.239616 1.33293,-0.142489 2.35824,-0.117319 5.05928,0.124217 3.21694,0.287664 4.59669,0.349274 6.35223,0.283644 1.04812,-0.0392 2.11355,-0.118111 2.36765,-0.175414 0.25408,-0.0573 0.66987,-0.105408 0.92397,-0.106907 0.54492,-0.003 2.17963,-0.289624 3.01301,-0.527883 0.3232,-0.0924 0.69404,-0.167999 0.82408,-0.167999 0.13005,0 0.4893,-0.07554 0.79832,-0.167884 0.30902,-0.09233 1.10757,-0.330539 1.77457,-0.529346 4.40076,-1.311725 8.64125,-3.493633 12.7622,-6.566695 2.96535,-2.211307 7.36416,-6.805533 9.41285,-9.831007 0.0953,-0.140711 0.33348,-0.470761 0.52932,-0.73344 1.45782,-1.955347 4.46126,-7.273989 5.58514,-9.890453 0.15007,-0.349372 0.39681,-0.921073 0.54832,-1.270446 0.66144,-1.525272 2.05975,-5.239838 2.23906,-5.947998 0.0482,-0.190566 0.19701,-0.710293 0.33057,-1.15495 0.26011,-0.865887 0.84872,-3.481401 1.03969,-4.619804 0.064,-0.381133 0.22441,-1.316644 0.35662,-2.078913 0.13221,-0.762267 0.31647,-1.905668 0.4095,-2.540891 0.40487,-2.765045 0.95738,-5.947461 1.19306,-6.871958 0.0729,-0.28585 0.28912,-1.143402 0.48054,-1.90567 0.19143,-0.762268 0.40502,-1.530532 0.47463,-1.707255 0.0696,-0.176724 0.0915,-0.356393 0.0486,-0.399264 -0.086,-0.08605 -0.1793,0.01501 -1.7843,1.933277 -1.33638,1.597228 -1.17626,1.41593 -2.09567,2.37259 -0.69805,0.726315 -0.72641,0.775555 -0.40424,0.701722 0.53045,-0.121562 1.58562,-0.426466 1.88222,-0.543888 0.42845,-0.169614 0.48543,-0.129183 0.48543,0.344462 0,0.37025 -0.0917,0.551636 -0.52096,1.02892 -0.8675,0.96487 -2.49307,1.641405 -4.36616,1.817103 l -0.78703,0.07383 -1.58061,1.402364 c -1.66872,1.480542 -2.9088,2.666507 -2.9088,2.781873 0,0.148823 1.37333,0.05511 2.1944,-0.149735 1.14812,-0.286443 2.20864,-0.697793 3.44409,-1.335874 1.11409,-0.575412 1.14898,-0.584055 1.57451,-0.390166 0.48474,0.220859 0.38704,0.629346 -0.31218,1.305215 -1.98134,1.915212 -4.80354,2.873662 -7.36281,2.500503 -0.47642,-0.06946 -0.97946,-0.157859 -1.11788,-0.196433 -0.20548,-0.05727 -0.54468,0.203065 -1.84792,1.418265 -0.87794,0.818621 -1.85046,1.720249 -2.16115,2.00362 -0.31072,0.283371 -0.89199,0.835172 -1.29175,1.226224 -1.17929,1.153589 -2.05903,1.204441 -2.53604,0.146598 -0.18061,-0.40052 -0.19117,-0.541253 -0.0756,-1.008042 0.0739,-0.298391 0.16659,-0.776408 0.206,-1.062259 0.13899,-1.008116 0.82965,-3.230115 1.45392,-4.677551 1.44232,-3.344217 3.06856,-6.667336 3.6287,-7.414988 0.75005,-1.001105 1.658,-1.338019 1.82393,-0.676812 0.11282,0.449625 -0.0457,0.99426 -0.57774,1.985281 -0.59609,1.110189 -1.75969,3.441972 -2.12511,4.258598 -1.02407,2.288574 -2.03291,4.464406 -2.2588,4.871721 -0.14729,0.2656 -0.30366,0.681383 -0.34748,0.923961 -0.0438,0.242579 -0.12664,0.532006 -0.18403,0.643168 -0.15637,0.302874 0.0972,0.253801 0.52232,-0.101053 0.33234,-0.277443 1.30329,-1.150319 3.13148,-2.815193 0.38365,-0.349373 0.86705,-0.775487 1.07423,-0.94692 0.29437,-0.243579 0.46681,-0.571695 0.78916,-1.501436 0.22687,-0.654356 0.47861,-1.345658 0.55941,-1.536226 0.37199,-0.877156 0.45718,-1.103696 0.78183,-2.078911 0.43762,-1.314543 0.62759,-2.042362 0.72346,-2.771883 0.0768,-0.584138 0.26352,-1.093412 0.4507,-1.229073 0.12844,-0.09309 0.72894,0.07424 0.96273,0.268269 0.14425,0.119723 0.16512,0.355244 0.11558,1.304172 -0.0675,1.292176 -0.40439,2.728862 -0.89789,3.828771 -0.33949,0.756671 -0.30942,1.02772 0.0651,0.586118 0.11847,-0.13967 0.919,-1.059526 1.77905,-2.044122 0.86002,-0.984595 1.61695,-1.857634 1.68204,-1.940087 0.0651,-0.08245 0.19988,-0.238371 0.29952,-0.346484 0.0996,-0.108115 0.69319,-0.794261 1.319,-1.524766 0.62579,-0.730507 1.48246,-1.717989 1.90367,-2.194407 1.34775,-1.524407 1.67184,-1.963417 1.44944,-1.963417 -0.10915,0 -0.36233,0.07473 -0.56251,0.166067 -0.93405,0.426217 -2.97017,0.991953 -4.34851,1.208248 -0.41289,0.06479 -1.08854,0.170301 -1.50144,0.234462 -0.4129,0.06416 -1.86814,0.145787 -3.23387,0.181387 -4.30524,0.112219 -7.54795,0.36963 -9.52833,0.75636 -1.13504,0.221647 -3.23897,0.696189 -3.52262,0.794525 -0.1588,0.05506 -0.60057,0.188331 -0.9817,0.296166 -4.69477,1.328301 -9.36707,3.767508 -12.48129,6.515962 -0.2584,0.228043 -0.8035,0.700475 -1.21137,1.049848 -0.40786,0.349372 -1.20992,1.08058 -1.78236,1.624904 -0.57242,0.544325 -1.43057,1.348692 -1.90699,1.787482 -0.47642,0.438791 -0.92383,0.850985 -0.99424,0.915987 -0.80343,0.741687 -1.99402,1.757518 -2.75015,2.346478 -0.51324,0.39977 -1.0382,0.815552 -1.16657,0.923961 -0.22681,0.191542 -1.3418,1.561796 -1.67842,2.062668 -1.80085,2.679629 -1.90832,2.859963 -2.91668,4.893894 -1.01367,2.044665 -1.06961,2.169353 -1.52703,3.404113 -1.95387,5.274331 -2.73601,9.57755 -2.87592,15.822828 -0.069,3.079321 -0.17161,4.447244 -0.48524,6.467727 -0.21888,1.410115 -0.75671,3.377358 -1.10034,4.0247 -0.0979,0.184449 -0.0508,0.430842 0.0567,0.296739 0.0213,-0.02645 0.53483,-0.671796 1.14134,-1.434063 0.60651,-0.762268 1.67887,-2.0356 2.38302,-2.829629 l 1.28026,-1.443688 0.005,-2.36765 c 0.005,-2.347191 0.26374,-5.006622 0.74819,-7.680425 0.0921,-0.508179 0.2194,-1.20981 0.28296,-1.559184 0.0635,-0.349372 0.16844,-0.817126 0.23306,-1.039457 0.0646,-0.222328 0.21894,-0.820014 0.34291,-1.32819 0.29675,-1.216451 0.9988,-3.605909 1.35736,-4.619805 0.15725,-0.444658 0.49258,-1.432141 0.74518,-2.194408 0.58931,-1.77828 1.02773,-2.701165 1.67404,-3.523819 0.95632,-1.217231 1.75533,-1.347833 1.63351,-0.267004 -0.0305,0.270369 -0.198,0.844114 -0.37226,1.274989 -0.17425,0.430874 -0.35908,0.887354 -0.4107,1.014398 -0.0961,0.236679 -0.81517,2.410938 -1.24129,3.753591 -1.19533,3.766418 -2.18966,8.474529 -2.56114,12.126984 -0.0678,0.666983 -0.17436,1.63118 -0.2367,2.142657 -0.1394,1.143582 -0.14875,3.054622 -0.015,3.054622 0.11572,0 3.34364,-3.431695 4.21997,-4.486359 l 0.41694,-0.501785 0.004,-1.403886 c 0.005,-1.79694 0.1772,-4.879776 0.34047,-6.108566 0.97153,-7.311664 2.23992,-12.079044 3.90808,-14.689118 0.57762,-0.903756 1.36305,-1.272899 1.63343,-0.76769 0.27242,0.509012 0.13892,1.223818 -0.43661,2.338008 -1.68395,3.259952 -2.58886,6.77304 -3.2523,12.626199 -0.18332,1.617427 -0.28666,5.8699 -0.14138,5.818106 0.0669,-0.02384 0.45199,-0.355187 0.85577,-0.73632 1.28032,-1.208497 3.35994,-3.121651 4.01804,-3.696399 0.34937,-0.305126 0.92662,-0.836449 1.28277,-1.180725 l 0.64756,-0.625953 0.0758,-1.00205 c 0.14615,-1.931216 0.29148,-2.910072 0.82609,-5.564112 0.43758,-2.172373 1.34134,-5.216035 2.38345,-8.02691 0.5668,-1.528789 1.44584,-3.79458 1.65792,-4.273319 0.0843,-0.190565 0.42277,-0.996145 0.75192,-1.790174 0.32913,-0.794029 0.74276,-1.755525 0.91916,-2.136658 0.17642,-0.381135 0.5976,-1.342632 0.93599,-2.136659 0.69835,-1.638765 1.36693,-2.51711 1.80912,-2.376763 0.3071,0.09747 0.34798,0.298248 0.23415,1.149838 -0.12288,0.919339 -0.25822,1.291999 -1.70387,4.691777 -1.80236,4.238686 -3.45218,8.573043 -3.93454,10.336811 -0.0522,0.190568 -0.17834,0.632336 -0.28049,0.981709 -0.20657,0.706638 -0.7975,2.984325 -0.91388,3.5226 -0.34847,1.611529 -0.8094,4.90028 -0.70202,5.008889 0.0538,0.05435 0.36984,-0.221418 3.61435,-3.153372 l 2.67556,-2.417802 v -0.975984 c 0,-2.25043 0.71095,-4.640715 1.38031,-4.640715 0.35222,0 0.50695,0.615595 0.5165,2.054937 0.005,0.819817 0.0555,1.348485 0.13002,1.373317 0.13197,0.04398 1.65191,-1.488635 2.16872,-2.186804 0.17638,-0.238276 0.46761,-0.509205 0.64719,-0.602064 0.29544,-0.15278 0.3443,-0.149158 0.51376,0.03809 0.1128,0.124646 0.18725,0.408445 0.18725,0.713699 0,1.693153 -1.78548,3.787237 -4.87545,5.718085 -0.9532,0.595633 -0.79283,0.672426 1.20849,0.578734 2.80329,-0.131236 5.10491,-0.558825 6.34839,-1.179391 0.70188,-0.350276 0.87764,-0.342441 1.02618,0.04574 0.15954,0.416932 -0.0465,1.12628 -0.39189,1.349794 -0.38361,0.248183 -2.87228,0.938701 -4.18193,1.160339 -0.63521,0.107498 -1.40699,0.243415 -1.71502,0.302031 -0.30806,0.05862 -1.58139,0.159444 -2.82964,0.224064 -2.25171,0.116563 -2.27192,0.119962 -2.57218,0.431862 -1.73734,1.804736 -4.28222,4.675673 -4.28757,4.836904 -0.005,0.138629 0.81105,0.366377 1.35634,0.378714 0.62396,0.0141 0.98171,0.120441 0.98171,0.291763 0,0.347591 -0.37066,0.857258 -0.66847,0.919161 -0.94975,0.197419 -2.78768,0.413307 -3.51865,0.413307 -0.71377,0 -0.88229,0.03954 -1.12684,0.264303 -0.15815,0.145363 -0.65897,0.574141 -1.11294,0.952833 -0.45396,0.378692 -1.72295,1.466701 -2.81998,2.417793 l -1.9946,1.729261 0.45234,0.100363 c 0.5596,0.124155 5.01044,0.01171 6.11158,-0.154457 0.44466,-0.06708 1.53609,-0.222799 2.4254,-0.346027 0.88931,-0.123236 1.95477,-0.279445 2.36766,-0.347136 3.3216,-0.544581 6.35859,-0.808953 6.63714,-0.577778 0.26019,0.215941 0.21776,0.442235 -0.15235,0.812336 -0.3342,0.334203 -1.08753,0.608846 -2.23104,0.813368 -1.59746,0.285708 -3.36107,0.57824 -4.83123,0.801357 -0.47642,0.0723 -1.15207,0.181485 -1.50145,0.242629 -0.34936,0.06114 -1.18091,0.161489 -1.84791,0.22299 -0.66698,0.06151 -1.52454,0.162646 -1.90567,0.224763 -0.38114,0.06212 -2.14821,0.171464 -3.92683,0.242992 -1.77862,0.07153 -3.29472,0.163977 -3.36909,0.205441 -0.21903,0.122116 -3.96486,3.838761 -3.96486,3.93397 0,0.251281 1.32342,0.634438 2.88739,0.835956 1.59824,0.20594 8.54436,0.209759 10.97203,0.0061 4.31568,-0.362161 4.87646,-0.455961 7.07618,-1.183621 3.03943,-1.005434 4.81011,-1.333572 5.33616,-0.988894 0.16066,0.105269 0.29213,0.247155 0.29213,0.315288 0,0.272338 -0.48556,0.780148 -0.95105,0.994643 -0.81234,0.374326 -5.25871,1.375713 -8.05758,1.814683 -0.66698,0.104615 -1.52454,0.241015 -1.90566,0.303122 -1.33823,0.21807 -5.27228,0.454191 -7.56737,0.454191 -3.72879,0 -6.82367,-0.435713 -9.05201,-1.274389 l -0.68105,-0.256327 -0.57892,0.620989 c -0.3184,0.341544 -0.83419,0.89335 -1.1462,1.226233 -0.312,0.332883 -0.75077,0.826624 -0.97503,1.097202 -0.22425,0.270579 -0.65104,0.751827 -0.94839,1.069436 -0.7235,0.772797 -1.51484,1.728079 -1.51484,1.828683 0,0.08378 0.41539,0.01524 0.92397,-0.152506 z m 13.26301,-1.727411 c -0.92952,-0.181032 -1.33505,-0.775589 -0.70291,-1.030555 0.18168,-0.07329 1.35555,-0.148878 2.743,-0.176641 1.33396,-0.02667 2.55533,-0.08275 2.71415,-0.124596 0.55509,-0.14622 3.08813,-0.323035 3.50564,-0.24471 0.33957,0.0637 0.42118,0.130479 0.42118,0.344621 0,0.548658 -0.47603,0.74825 -2.63654,1.105452 -1.09815,0.181557 -1.90393,0.232367 -3.5226,0.222126 -1.15431,-0.0073 -2.28918,-0.05037 -2.52192,-0.0957 z m 13.60426,-7.258992 c -0.13146,-0.212706 0.49319,-0.806413 1.04696,-0.995106 0.29629,-0.100949 0.85429,-0.183866 1.23999,-0.184241 0.38569,-3.75e-4 1.50685,-0.134708 2.49144,-0.298525 2.43194,-0.404621 3.43506,-0.288372 3.82673,0.443462 0.21002,0.392416 0.0599,0.455444 -2.03655,0.855006 -1.14058,0.217381 -6.45539,0.362539 -6.56857,0.179404 z m 1.0478,-2.214175 c -0.60078,-0.116311 -0.76889,-0.299512 -0.47878,-0.521774 0.30977,-0.237312 1.27822,-0.521624 1.77683,-0.521624 0.22709,0 0.59446,-0.05249 0.81637,-0.116652 1.20561,-0.348571 3.6408,-0.499065 4.68896,-0.289768 0.60582,0.12097 0.6808,0.166732 0.6808,0.415551 0,0.378823 -0.53857,0.553408 -1.73318,0.561829 -0.50861,0.0036 -1.1063,0.06385 -1.32821,0.133922 -0.53067,0.16757 -2.67408,0.438111 -3.40633,0.429948 -0.31763,-0.0036 -0.77502,-0.04469 -1.01646,-0.09143 z m 1.88268,-5.547707 c -0.0953,-0.06158 -0.31311,-0.112761 -0.48405,-0.113729 -0.64497,-0.0036 -0.49955,-0.604363 0.24802,-1.024528 0.38325,-0.215391 0.57336,-0.23818 1.63417,-0.195909 0.66026,0.02632 1.27845,0.07305 1.37374,0.103874 0.0953,0.03082 0.31617,0.08735 0.49085,0.125628 0.21446,0.04698 0.3176,0.142932 0.3176,0.295417 0,0.263171 -0.36379,0.471308 -1.28821,0.737028 -0.71925,0.206739 -2.02052,0.247732 -2.29212,0.07221 z m 1.61692,-2.665119 c -1.33268,-0.08847 -1.95713,-0.205207 -1.96122,-0.366626 -0.001,-0.04764 -0.002,-0.131632 -0.002,-0.186642 0,-0.05501 0.29884,-0.207223 0.66409,-0.338244 0.49944,-0.179151 1.16527,-0.267559 2.68527,-0.356542 1.11163,-0.06508 2.95667,-0.203191 4.10006,-0.306915 3.51737,-0.319094 4.57459,-0.214985 4.74585,0.467344 0.042,0.16764 0.0282,0.353107 -0.0308,0.412145 -0.20234,0.202357 -2.30896,0.43416 -6.15868,0.677679 -1.97454,0.124898 -2.12905,0.124822 -4.04232,-0.0021 z m -29.0348,-0.420575 c -0.20186,-0.0517 -0.21323,-0.140302 -0.14712,-1.146726 0.18713,-2.848984 1.19021,-5.917757 2.52379,-7.721324 l 0.3416,-0.461981 -0.0826,0.461981 c -0.0455,0.254088 -0.3367,1.397491 -0.6472,2.540892 -0.54699,2.014309 -0.89698,3.898547 -0.90132,4.852502 -0.002,0.605476 -0.52533,1.599757 -0.8106,1.542311 -0.0318,-0.0064 -0.15617,-0.03684 -0.27651,-0.06766 z m 30.6535,-2.591296 c 0.004,-0.647106 0.38124,-0.777254 2.61839,-0.903861 0.96871,-0.05482 1.81148,-0.130697 1.87281,-0.168608 0.23675,-0.146312 3.92872,-0.577167 6.10396,-0.712336 1.1598,-0.07206 1.32433,-0.05833 1.5299,0.127704 0.29833,0.26999 0.15963,0.44259 -0.5556,0.691391 -0.52583,0.182922 -2.02908,0.481378 -2.96684,0.589044 -0.25409,0.02916 -0.87503,0.108202 -1.37987,0.175624 -0.50485,0.06742 -2.06403,0.171481 -3.46486,0.23124 -1.40082,0.05976 -2.81981,0.138399 -3.15331,0.174738 -0.57831,0.06301 -0.60627,0.05355 -0.60458,-0.204936 z m 4.86531,-3.254265 c -0.22163,-0.267042 -0.12024,-0.556778 0.2922,-0.834696 0.29757,-0.200527 0.60559,-0.258637 1.67459,-0.315928 0.72048,-0.0386 1.67346,-0.122279 2.11771,-0.185943 2.34116,-0.335457 2.84585,-0.383559 3.55239,-0.338571 0.61445,0.03914 0.83072,0.105622 1.06778,0.328335 0.45776,0.430053 0.34466,0.721022 -0.34757,0.894094 -1.40681,0.351741 -3.01435,0.518385 -5.5468,0.575008 -2.32628,0.05201 -2.67835,0.03669 -2.8103,-0.122305 z m 2.98659,-2.953925 c -0.79695,-0.07279 -1.03945,-0.166118 -1.03945,-0.400031 0,-0.205826 0.90216,-0.393049 2.30989,-0.479362 0.667,-0.04089 1.62848,-0.147087 2.13666,-0.235984 0.50818,-0.0889 1.38386,-0.162587 1.94595,-0.163759 0.99553,-0.002 1.03068,0.0072 1.35708,0.356573 0.1843,0.197285 0.33506,0.401991 0.33506,0.454905 0,0.05291 -0.24686,0.126756 -0.54859,0.164097 -0.30173,0.03735 -0.91241,0.116639 -1.35707,0.176223 -1.03623,0.138848 -4.16479,0.21636 -5.13953,0.127338 z m -0.54076,-2.091751 c -0.71033,-0.04959 -1.34699,-0.124457 -1.41483,-0.166378 -0.26548,-0.164082 -0.10841,-0.490426 0.36385,-0.755836 0.42461,-0.238648 0.70263,-0.284156 2.16553,-0.354472 0.92309,-0.04437 2.39391,-0.166776 3.26848,-0.272015 0.87458,-0.105244 1.98926,-0.176182 2.47711,-0.15765 0.86933,0.03302 0.89143,0.04133 1.11097,0.417966 0.33507,0.574806 0.15294,0.676691 -1.77895,0.995195 -1.89183,0.3119 -4.2945,0.425664 -6.19216,0.29319 z m 3.70348,-2.705365 c -0.21,-0.547251 0.31051,-0.953141 1.39934,-1.091182 0.44465,-0.05637 1.1185,-0.212239 1.49742,-0.34637 1.38083,-0.488768 2.02766,-0.216679 1.92798,0.810985 -0.0194,0.19963 -0.0486,0.211384 -1.40424,0.564124 -1.09609,0.285206 -3.31943,0.325795 -3.4205,0.06245 z m -34.73138,-0.834462 c -0.11131,-0.111274 -0.0946,-0.901564 0.0257,-1.214804 0.15508,-0.404011 0.81085,-1.036972 1.03112,-0.99527 0.12688,0.02402 0.20744,0.172471 0.23183,0.427202 0.0583,0.608465 -0.0633,0.90535 -0.574,1.400881 -0.48123,0.467022 -0.57789,0.51869 -0.71458,0.381991 z m 29.66299,-1.067586 c -0.82751,-0.136513 -0.92534,-0.301074 -0.44426,-0.747163 0.37183,-0.344784 0.96944,-0.504596 2.44333,-0.653393 1.45275,-0.146662 3.6353,-0.43234 4.29541,-0.562232 0.28585,-0.05624 0.83157,-0.16333 1.2127,-0.237962 1.77334,-0.347245 3.81932,-1.278709 4.98472,-2.269358 0.6454,-0.548632 0.7018,-0.568113 1.10844,-0.382834 0.71563,0.326062 0.63693,1.073985 -0.17748,1.686642 -0.66282,0.498632 -2.39913,1.288381 -3.77903,1.718871 -0.34936,0.108996 -0.73916,0.238609 -0.8662,0.28803 -0.66199,0.257518 -3.4074,0.880257 -4.78452,1.085265 -1.21053,0.180208 -3.13371,0.215913 -3.99311,0.07413 z m -20.98458,-1.194193 c -0.0803,-0.142926 -0.14246,-0.597688 -0.13834,-1.010582 0.0105,-1.040816 0.40759,-2.143611 1.27585,-3.542262 0.69374,-1.117555 1.265,-1.477936 1.53703,-0.969639 0.20965,0.39174 0.1302,0.810529 -0.27353,1.44166 -0.41789,0.653271 -1.135,2.215476 -1.26939,2.765375 -0.0444,0.181695 -0.19235,0.571492 -0.32877,0.866213 -0.35554,0.768114 -0.55975,0.882384 -0.80285,0.449235 z m -5.35036,-0.40194 c 0.0806,-0.536913 0.43362,-1.186117 0.64514,-1.186117 0.19213,0 0.11382,0.722718 -0.13366,1.233981 -0.13271,0.274144 -0.32051,0.498444 -0.41734,0.498444 -0.14449,0 -0.16136,-0.09799 -0.0942,-0.546308 z m 2.0816,-1.590351 c 0.11256,-0.812438 1.04956,-2.337667 1.28902,-2.098196 0.14144,0.141444 -0.18936,0.962031 -0.70321,1.744398 -0.67174,1.022738 -0.67908,1.027171 -0.58581,0.353798 z m 31.02993,-1.13352 c -0.3354,-0.357023 -0.32279,-0.814495 0.0301,-1.092077 0.15466,-0.121663 0.73935,-0.392341 1.29931,-0.601513 0.55997,-0.209173 1.07008,-0.419602 1.1336,-0.46762 0.0636,-0.04802 0.60924,-0.248255 1.21271,-0.444971 2.29313,-0.747514 4.05554,-0.682521 3.43931,0.126828 -0.15901,0.208837 -3.08844,1.727459 -4.13228,2.142182 -0.61816,0.245597 -2.11924,0.604479 -2.52831,0.604479 -0.11181,0 -0.31632,-0.120289 -0.45444,-0.267308 z m -14.67318,-0.35005 c -0.6626,-0.798386 0.29174,-3.396302 3.18855,-8.679998 1.12875,-2.058778 1.64757,-2.825266 1.96659,-2.905333 0.46438,-0.116563 0.66742,0.09148 0.63088,0.646451 -0.0466,0.70749 -0.35805,1.429581 -1.15945,2.687844 -0.39301,0.617063 -0.71456,1.179399 -0.71456,1.249637 0,0.07025 -0.16204,0.363223 -0.36009,0.651081 -0.68258,0.992096 -1.34048,2.467906 -2.5544,5.730018 -0.11206,0.300995 -0.59105,0.775676 -0.78279,0.775676 -0.0472,0 -0.1438,-0.06991 -0.21473,-0.155376 z m -8.90388,-1.107476 c -0.0657,-0.12287 -0.11772,-0.577631 -0.11547,-1.010582 0.008,-1.730134 0.77391,-3.702988 1.9409,-5.006247 0.39434,-0.440391 0.49329,-0.496954 0.67344,-0.384987 0.17552,0.109085 0.20528,0.255388 0.17617,0.866214 -0.0461,0.968312 -0.27516,1.726921 -1.00649,3.333601 -0.3325,0.730508 -0.63882,1.439881 -0.68069,1.576389 -0.0812,0.264607 -0.61299,0.849009 -0.77263,0.849009 -0.0527,0 -0.14949,-0.10052 -0.21525,-0.223397 z m 6.36614,-4.367533 c 0.0379,-0.798419 0.10638,-1.026289 0.63505,-2.109935 0.57702,-1.182878 1.66276,-2.776631 2.27212,-3.335286 0.2397,-0.219753 0.33579,-0.248729 0.46612,-0.14056 0.14155,0.117469 0.14179,0.210664 10e-4,0.676038 -0.21122,0.701837 -0.96155,2.247077 -1.60878,3.313157 -0.28198,0.464455 -0.64649,1.136717 -0.81001,1.493915 -0.27124,0.59246 -0.63545,0.997758 -0.89663,0.997758 -0.0561,0 -0.083,-0.40279 -0.0596,-0.895087 z m 2.54601,0.294513 c -0.40839,-0.408408 0.14535,-2.094608 1.62178,-4.938422 1.01578,-1.956517 1.49413,-2.679013 1.66237,-2.510783 0.18694,0.186953 0.0508,1.2267 -0.21755,1.660296 -0.41779,0.675265 -0.79561,1.534854 -1.59009,3.617601 -0.86448,2.266218 -1.07379,2.57402 -1.47651,2.171308 z m 5.20196,-0.09083 c -0.2396,-0.383669 -0.17027,-1.396969 0.15501,-2.265642 0.16404,-0.4381 0.32922,-0.89973 0.36706,-1.025843 0.13003,-0.433421 1.32871,-2.653112 2.07309,-3.838892 0.52459,-0.83568 0.82787,-1.207896 1.02431,-1.257202 0.82329,-0.206633 0.82405,0.390614 0.002,2.014186 -0.34292,0.677762 -0.73198,1.466171 -0.86455,1.75202 -0.13258,0.285853 -0.38948,0.779593 -0.57087,1.097205 -0.18141,0.317612 -0.57938,1.201149 -0.8844,1.963416 -0.71353,1.783267 -0.97073,2.091522 -1.30221,1.560752 z m -46.12642,40.485405 c 0.47528,-0.704242 0.61295,-1.175776 0.48714,-1.668674 -0.0584,-0.228901 -0.14268,-0.753999 -0.18723,-1.166897 -0.10303,-0.954693 -0.65323,-2.522792 -1.16697,-3.325901 -0.43342,-0.677539 -1.38701,-1.640386 -1.6246,-1.640386 -0.0817,0 -0.14864,0.06897 -0.14864,0.153283 0,0.138324 0.50861,1.804905 0.81678,2.676345 0.41655,1.17795 0.82074,2.96605 1.03717,4.588309 0.16644,1.24763 0.19427,1.261219 0.78635,0.383921 z M 360.32859,62.124994 c 3.47753,-0.132133 4.77463,-0.249801 7.68043,-0.696733 2.11045,-0.324604 4.50431,-1.110674 4.50431,-1.479082 0,-0.04927 -0.42877,-0.435053 -0.95285,-0.857306 -0.52405,-0.422251 -1.86235,-1.503342 -2.97399,-2.402423 -1.11163,-0.899081 -2.13612,-1.688927 -2.27663,-1.755209 -0.19906,-0.09392 -0.44131,-0.05557 -1.09721,0.173612 -1.05413,0.368346 -1.24911,0.408183 -2.99762,0.612424 -4.23103,0.494225 -5.23702,0.551981 -9.68234,0.555862 -4.27232,0.0036 -5.24574,-0.04581 -8.95088,-0.455606 -0.67474,-0.07462 -3.25646,-0.476707 -3.92684,-0.611573 -0.6246,-0.125654 -1.44369,-0.559502 -1.44369,-0.764678 0,-0.541811 1.4823,-0.515767 3.75359,0.06595 l 1.50143,0.384541 5.94801,0.0049 c 10.26193,0.0085 11.39248,-0.02645 13.51293,-0.416608 0.98123,-0.180555 2.21299,-0.563089 2.1728,-0.67478 -0.0198,-0.05525 -0.6858,-0.629015 -1.47983,-1.275037 -0.79402,-0.646022 -1.54781,-1.260297 -1.67507,-1.365055 -0.12726,-0.104752 -0.46507,-0.371031 -0.75071,-0.591717 -0.28565,-0.220687 -0.54533,-0.432514 -0.5771,-0.470725 -0.19795,-0.238153 -1.8188,-1.380181 -1.95886,-1.380181 -0.0936,0 -0.58779,0.09932 -1.09801,0.220701 -1.55024,0.368802 -2.31771,0.468026 -5.13276,0.663588 -2.49637,0.173423 -2.91693,0.173425 -5.48677,2.9e-5 -1.53072,-0.103278 -3.06867,-0.238933 -3.41763,-0.30144 -0.34895,-0.06251 -1.12821,-0.195129 -1.73167,-0.294712 -1.09499,-0.180695 -2.8666,-0.557573 -3.5226,-0.749372 -0.19058,-0.05571 -0.6843,-0.18837 -1.0972,-0.294785 -0.41289,-0.106414 -0.85466,-0.236093 -0.98171,-0.288174 -0.12705,-0.05208 -0.43888,-0.156111 -0.69297,-0.231177 -0.76684,-0.226551 -3.16145,-1.253399 -3.66667,-1.572324 -0.68675,-0.433527 -0.88391,-0.646379 -0.96244,-1.039076 -0.0621,-0.310173 -0.0295,-0.366423 0.28863,-0.498176 0.58576,-0.242629 1.40586,-0.09293 2.43605,0.444671 0.96828,0.50529 3.00353,1.336428 3.69461,1.508764 0.22232,0.05545 0.79403,0.201739 1.27044,0.325102 1.03627,0.26833 2.45058,0.530545 4.33107,0.802982 2.04148,0.295762 9.57582,0.293971 11.08752,-0.0026 1.63944,-0.321671 3.06063,-0.684401 3.06063,-0.781167 0,-0.117256 -1.1941,-0.980515 -3.61904,-2.616355 -2.576,-1.737746 -4.05031,-2.746694 -4.70422,-3.219371 -0.52103,-0.376607 -0.53627,-0.379822 -1.27046,-0.267904 -2.614,0.39848 -6.26892,0.535467 -9.28973,0.34818 -3.12719,-0.193881 -4.28296,-0.461534 -4.67014,-1.081511 -0.1254,-0.200823 -0.11559,-0.253619 0.0672,-0.361905 0.45242,-0.267935 0.92284,-0.305558 5.29587,-0.42357 4.11523,-0.111061 6.75983,-0.303316 6.96271,-0.506187 0.0435,-0.04346 -0.0469,-0.174036 -0.20085,-0.290149 -0.26891,-0.20285 -3.42214,-2.124789 -4.27158,-2.603611 -0.22626,-0.127538 -0.73001,-0.42638 -1.11946,-0.664097 -0.38943,-0.237717 -0.74245,-0.432213 -0.78447,-0.432213 -0.0419,0 -0.13916,-0.05389 -0.21587,-0.119749 -0.0767,-0.06586 -0.96715,-0.611574 -1.9787,-1.212699 l -1.8392,-1.092953 h -4.37581 -4.37582 l -0.60325,-0.285383 c -0.33178,-0.15696 -0.75406,-0.44281 -0.9384,-0.635223 l -0.33518,-0.349841 1.20543,4.82e-4 c 0.66299,2.58e-4 1.90707,0.04923 2.76463,0.108832 2.75765,0.191646 4.85092,0.261332 4.8459,0.161324 -0.002,-0.05356 -0.19759,-0.221606 -0.43312,-0.373439 -0.84326,-0.543637 -3.91518,-2.375364 -5.0911,-3.035731 l -1.19803,-0.67279 h -3.05399 c -3.03055,0 -3.50081,-0.05334 -3.50081,-0.396997 0,-0.285059 0.70323,-0.411444 2.29826,-0.413045 2.15579,-0.0021 2.48583,-0.107473 1.65745,-0.528839 -0.23821,-0.12117 -0.45044,-0.259282 -0.47161,-0.306924 -0.0211,-0.04764 -0.0886,-0.08662 -0.14992,-0.08662 -0.0613,0 -0.40776,-0.18984 -0.76996,-0.421867 -0.36221,-0.232025 -0.81447,-0.509853 -1.00504,-0.617397 -0.19057,-0.107548 -1.29601,-0.748739 -2.45658,-1.424882 -2.06659,-1.204016 -2.9578,-1.693677 -3.08258,-1.693677 -0.15314,0 -0.0298,0.291998 0.38084,0.901422 0.69615,1.033168 1.34265,2.305593 2.38807,4.70009 0.0832,0.190565 0.33775,0.753906 0.56568,1.251867 0.22791,0.497958 0.4144,0.934547 0.4144,0.970196 0,0.03564 0.12667,0.329859 0.28147,0.653803 0.15482,0.323942 0.41971,0.926809 0.58865,1.339705 0.16894,0.412894 0.45805,1.079174 0.64248,1.48062 0.18443,0.401446 0.33533,0.750722 0.33533,0.776169 0,0.04627 0.34243,0.821362 0.89091,2.01653 1.43911,3.135907 2.78843,5.877191 3.52462,7.160695 0.72401,1.262259 2.26032,3.652127 2.67757,4.16522 0.13245,0.162874 0.34477,0.443736 0.47182,0.624137 0.41253,0.585778 2.13299,2.634397 3.09941,3.690564 1.71183,1.870805 4.22023,4.03245 6.65992,5.739244 1.91955,1.342909 5.57861,3.231949 5.81071,2.999853 0.235,-0.235003 0.65559,-0.144544 0.77382,0.166436 0.0699,0.18372 0.2961,0.37148 0.60949,0.505814 0.65431,0.280474 2.51398,0.865175 3.31604,1.042616 0.34937,0.07729 0.79113,0.187021 0.9817,0.243852 0.51532,0.153674 2.83252,0.492683 4.15784,0.60829 0.94905,0.08279 2.62411,0.07218 5.42826,-0.03436 z m -7.85366,-1.853124 c -0.8258,-0.05627 -1.81753,-0.156552 -2.20387,-0.222811 -0.38633,-0.06627 -0.98402,-0.12024 -1.32819,-0.119938 -0.75635,8.73e-4 -2.47841,-0.313999 -2.87792,-0.525846 -0.18064,-0.09579 -0.28874,-0.253118 -0.28874,-0.420247 0,-0.241695 0.0591,-0.270515 0.62132,-0.302568 0.37298,-0.02126 0.80089,0.03645 1.07065,0.144368 0.38579,0.154361 1.27008,0.179859 6.25066,0.180231 5.6196,4.19e-4 5.81329,0.0078 6.18452,0.234078 0.23986,0.146242 0.36901,0.307451 0.34525,0.430919 -0.0381,0.197901 -0.0966,0.216121 -1.53695,0.47896 -0.96836,0.176707 -4.44262,0.245149 -6.23673,0.122858 z m -8.71989,-6.53797 c -2.00927,-0.150802 -5.17504,-0.867056 -7.73817,-1.750757 -0.56625,-0.19523 -0.63521,-0.254062 -0.63521,-0.541885 0,-0.178864 0.088,-0.378355 0.19719,-0.447261 0.20181,-0.127292 0.38927,-0.09042 1.59298,0.313356 2.36347,0.792799 5.12407,1.200802 9.56321,1.413392 1.46376,0.0701 1.54505,0.08691 1.72137,0.356022 0.16335,0.24929 0.16502,0.302503 0.0142,0.453275 -0.13377,0.133783 -0.5947,0.179575 -2.12561,0.211179 -1.07513,0.0222 -2.24063,0.01889 -2.59,-0.0073 z m -0.51973,-2.358927 c -0.19054,-0.04466 -0.59607,-0.08734 -0.90115,-0.09485 -0.52601,-0.01296 -1.17807,-0.1297 -3.02567,-0.541709 -3.10671,-0.692782 -6.98505,-2.04049 -7.7093,-2.678939 -0.40096,-0.353458 -0.14487,-0.95084 0.40761,-0.95084 0.0897,0 0.48856,0.210463 0.88655,0.467694 0.63779,0.412235 2.66061,1.202346 3.81649,1.490732 0.22234,0.05547 0.76805,0.200791 1.21271,0.322936 0.44465,0.122141 1.19826,0.311275 1.67467,0.420289 0.47642,0.109009 1.15207,0.268765 1.50144,0.355002 0.34937,0.08623 0.97304,0.220854 1.38595,0.299147 0.41289,0.07829 0.9586,0.182117 1.21269,0.230717 0.25409,0.0486 0.79981,0.146055 1.21269,0.216564 1.47989,0.252711 1.4394,0.237802 1.16579,0.429457 -0.25286,0.177107 -2.13343,0.19949 -2.84047,0.03381 z M 341.0409,44.95501 c -1.37317,-0.06149 -3.69722,-0.38326 -5.42826,-0.751573 -0.72349,-0.153934 -3.84699,-1.008233 -4.15783,-1.137189 -0.12703,-0.0527 -0.51683,-0.185306 -0.86621,-0.29466 -0.34936,-0.10935 -0.73916,-0.241575 -0.8662,-0.293821 -0.12705,-0.05225 -0.65424,-0.254683 -1.17157,-0.449862 -1.5485,-0.584252 -2.33861,-1.319074 -1.82339,-1.695815 0.1152,-0.08425 0.3477,-0.153169 0.51665,-0.153169 0.33191,0 1.05626,0.219252 1.15011,0.348126 0.11042,0.151554 1.37455,0.806824 1.55659,0.806824 0.10073,0 0.50632,0.1094 0.90132,0.243108 3.87254,1.31083 6.85711,1.992604 9.38034,2.142768 1.3623,0.08107 1.73187,0.217637 1.91868,0.708977 0.11433,0.300842 -0.0438,0.619944 -0.28702,0.579152 -0.0717,-0.01197 -0.44206,-0.03579 -0.82321,-0.05287 z m -11.665,-6.736034 c -0.7897,-0.166654 -1.60031,-0.521844 -2.34494,-1.027507 -0.68452,-0.464849 -0.88243,-0.70982 -0.5713,-0.707155 0.30435,0.0026 3.31906,0.339887 3.62939,0.406048 0.87369,0.186275 1.85131,0.434749 2.05875,0.523256 0.12703,0.05421 0.43561,0.180261 0.6857,0.280118 0.43027,0.171792 0.44401,0.192256 0.25587,0.380536 -0.16564,0.165741 -0.45381,0.202588 -1.72517,0.220587 -0.83947,0.01184 -1.7342,-0.02226 -1.9883,-0.07588 z m -7.1376,-8.224292 c -0.38889,-0.141815 -0.35521,-0.325371 0.10095,-0.549981 0.5498,-0.270733 2.90572,-0.311719 3.81229,-0.06633 0.40768,0.110356 0.74124,0.246146 0.74124,0.301762 0,0.05562 -0.18825,0.179776 -0.41834,0.275912 -0.49226,0.205685 -3.69784,0.234917 -4.23612,0.03862 z m 50.81745,23.899279 c -0.0683,-4.12977 -0.14315,-4.935913 -0.65628,-7.074075 -0.98192,-4.091665 -3.24606,-8.661988 -6.12215,-12.357975 -3.83613,-4.92972 -8.99789,-9.149007 -14.43761,-11.801506 -1.76334,-0.859827 -2.50571,-1.193382 -3.40711,-1.530839 -0.38113,-0.142683 -0.87487,-0.331018 -1.09721,-0.418519 -0.96683,-0.38052 -3.7076,-1.167694 -4.61979,-1.326853 -0.28586,-0.04987 -0.5977,-0.119736 -0.69297,-0.155242 -0.49258,-0.183565 -3.51543,-0.416706 -5.41038,-0.417283 -2.03092,-6.12e-4 -3.43593,0.09379 -5.44618,0.365961 -1.71924,0.232772 -2.14781,0.300996 -2.82962,0.450457 -0.91167,0.19985 -4.99394,0.198227 -6.23673,-0.0025 -0.50819,-0.08206 -1.18383,-0.188463 -1.50144,-0.236435 -0.31761,-0.04797 -0.86333,-0.141582 -1.2127,-0.208025 -1.254,-0.238481 -1.76255,-0.280024 -1.67401,-0.136746 0.16278,0.263366 4.10982,3.348272 4.28403,3.348272 0.11873,0 0.15545,-0.06922 0.11093,-0.209366 -0.27185,-0.856479 -0.36426,-1.408206 -0.25432,-1.518153 0.17481,-0.174827 0.48536,-0.147557 0.6556,0.05758 0.18276,0.220219 0.68905,1.301172 0.68905,1.471173 0,0.236207 0.62191,1.441406 0.80166,1.553572 0.23172,0.144574 2.21773,1.290333 2.89419,1.669681 0.28584,0.160305 0.97108,0.558845 1.52273,0.885647 0.55166,0.326802 1.05839,0.594185 1.12609,0.594185 0.0677,0 0.12301,0.05198 0.12301,0.115493 0,0.06351 0.045,0.115492 0.10021,0.115492 0.0552,0 0.47213,0.215324 0.9267,0.478498 0.45456,0.263174 0.85716,0.447813 0.89467,0.410308 0.0375,-0.0375 -0.0365,-0.239836 -0.16457,-0.449625 -0.12802,-0.209788 -0.33559,-0.563339 -0.46126,-0.785666 -0.12566,-0.222329 -0.58813,-1.027907 -1.02768,-1.790175 -0.97098,-1.683916 -1.19606,-2.25956 -1.22641,-3.136683 -0.0217,-0.628342 -0.005,-0.677294 0.24825,-0.713101 0.53269,-0.07541 0.81646,0.09539 1.2654,0.761641 0.63767,0.946319 1.07144,1.772522 1.75114,3.335369 0.32763,0.753338 0.64132,1.473652 0.69706,1.600696 0.53318,1.21503 1.0623,2.24335 1.22286,2.376604 0.10752,0.08924 0.62128,0.422578 1.14165,0.740749 1.20671,0.737802 7.92945,4.951755 10.05058,6.299902 0.88931,0.565232 1.7045,1.029348 1.81154,1.031373 0.16335,0.0031 0.0835,-0.325761 -0.49714,-2.04636 -0.38047,-1.127521 -0.73811,-2.153984 -0.79474,-2.281027 -0.0566,-0.127046 -0.19337,-0.542828 -0.3038,-0.923961 -0.11043,-0.381135 -0.39234,-0.981324 -0.62643,-1.333757 -0.86109,-1.296447 -0.99313,-1.811887 -0.59125,-2.308173 0.3113,-0.384459 0.93535,-0.240095 1.40816,0.32577 0.68735,0.822589 1.89737,3.78031 2.37254,5.799304 0.28439,1.208439 0.76264,2.938824 1.0526,3.808535 0.16997,0.509822 0.32279,0.718083 0.78832,1.074303 0.54748,0.418923 5.5871,4.120953 6.06803,4.457479 0.20949,0.146585 0.22646,0.133073 0.22646,-0.180365 0,-0.716656 -0.79451,-3.320671 -1.82574,-5.983837 -0.67665,-1.74747 -1.86668,-4.112758 -2.72487,-5.415886 -0.67237,-1.020985 -0.76218,-1.381674 -0.40046,-1.608315 0.49978,-0.313157 1.4481,0.517399 2.28374,2.000165 2.51204,4.457346 3.85269,8.202732 4.15477,11.607258 l 0.0718,0.808464 2.33858,1.761301 c 1.28622,0.968715 2.3984,1.761299 2.47152,1.761299 0.16393,0 0.0647,-3.271757 -0.13132,-4.331064 -0.62358,-3.369269 -1.40711,-5.510498 -2.47217,-6.755894 -0.60834,-0.711358 -0.63306,-1.011829 -0.12086,-1.469735 0.34209,-0.305829 0.87993,-0.255227 1.2957,0.121902 0.44003,0.399162 1.8484,3.456339 2.137,4.638881 0.0309,0.127045 0.17018,0.646772 0.30929,1.154951 0.62196,2.272016 1.22962,6.17473 1.10382,7.089392 -0.0433,0.314476 -0.0438,0.848965 -10e-4,1.187753 0.0758,0.604733 0.0924,0.62686 0.90461,1.212105 0.92996,0.670082 1.12897,0.830264 2.84282,2.288302 1.30851,1.113192 1.82646,1.568513 2.30256,2.02411 0.16596,0.158809 0.69154,0.626563 1.16796,1.039457 0.47642,0.412897 0.88353,0.789698 0.90471,0.837339 0.0211,0.04764 0.14453,0.08662 0.27412,0.08662 0.23373,0 0.23513,-0.03104 0.17206,-3.840211 z m -3.45063,-6.16297 c -0.21104,-0.493118 -0.20254,-3.479191 0.0113,-3.855309 l 0.16341,-0.287816 0.20339,0.46106 c 0.26166,0.593114 0.28789,2.32786 0.0491,3.244788 -0.0943,0.362088 -0.1968,0.683668 -0.22775,0.714623 -0.0309,0.03096 -0.12049,-0.09385 -0.19908,-0.277346 z m -2.18311,-3.702473 c -0.18733,-0.484483 -0.0886,-4.396759 0.12036,-4.77356 l 0.16021,-0.288739 0.20793,0.461982 c 0.16631,0.36953 0.20752,0.76244 0.2059,1.963416 -0.002,2.226363 -0.34741,3.534293 -0.69442,2.636901 z m -2.05458,-1.23313 c -0.0744,-0.0897 -0.16696,-0.572907 -0.2056,-1.073774 -0.0892,-1.156791 0.0671,-6.07841 0.19985,-6.291152 0.0763,-0.122229 0.14844,-0.129898 0.30527,-0.03241 0.16738,0.104032 0.22465,0.381993 0.30929,1.501435 0.15793,2.088237 0.13717,4.156851 -0.0514,5.118346 -0.17073,0.870934 -0.31407,1.070847 -0.55748,0.777554 z m -1.51746,-4.493266 c -10e-4,-0.240627 -0.38625,-1.668731 -1.07357,-3.980977 -0.26625,-0.895721 -0.26955,-0.9404 -0.0584,-0.792543 0.40483,0.28356 0.87014,1.037258 1.07528,1.741774 0.24595,0.844594 0.38687,3.291611 0.18957,3.291611 -0.0724,0 -0.13215,-0.11694 -0.13283,-0.259865 z m -3.78143,-3.762286 c -0.0822,-0.05224 -0.24337,-0.760559 -0.37392,-1.644037 -0.31588,-2.137503 -0.41642,-2.639457 -0.629,-3.140314 -0.24073,-0.567192 -0.085,-0.547974 0.47401,0.05851 0.6431,0.697676 1.02956,1.752005 1.11743,3.048545 0.0963,1.421186 -0.10199,1.986245 -0.58852,1.677299 z m -2.26777,-0.543334 c -0.0972,-0.09718 -0.25417,-0.447986 -0.3489,-0.779592 -0.33049,-1.156902 -0.53039,-2.00582 -0.53039,-2.252384 0,-0.136603 -0.0706,-0.419044 -0.15699,-0.627646 -0.0864,-0.208603 -0.27561,-0.743087 -0.42061,-1.187743 -0.14499,-0.444656 -0.30015,-0.860439 -0.3448,-0.923962 -0.0447,-0.06352 -0.1137,-0.206619 -0.1534,-0.317994 -0.0682,-0.191371 -0.0549,-0.191815 0.24194,-0.008 1.48513,0.919177 2.44872,2.868619 2.45015,4.956846 4.3e-4,0.75961 -0.039,0.970779 -0.21057,1.126079 -0.25978,0.235106 -0.30457,0.236336 -0.52643,0.01446 z m -2.64426,-0.565355 c -0.0905,-0.0905 -0.28692,-0.467305 -0.43647,-0.837339 -0.50896,-1.259211 -1.09419,-2.364872 -2.6486,-5.003856 -1.20706,-2.049259 -1.27119,-2.177824 -1.27119,-2.548029 0,-0.852338 0.95605,-0.532542 2.12603,0.711141 0.48226,0.512652 0.87684,0.984725 0.87684,1.04905 0,0.06433 0.0978,0.254912 0.21747,0.423524 0.78159,1.101766 1.51825,2.935025 1.80386,4.489201 0.17204,0.936139 0.17346,1.078903 0.0145,1.459258 -0.18593,0.445023 -0.41008,0.529445 -0.68246,0.25705 z m -6.16717,-5.202844 c -0.70027,-0.495366 -1.94742,-3.252572 -1.86418,-4.121328 0.0325,-0.339198 0.0812,-0.390403 0.40097,-0.42145 0.54895,-0.05331 1.06449,0.474664 1.69365,1.734489 0.58817,1.177731 0.80953,1.921303 0.7519,2.52571 -0.0328,0.344519 -0.0818,0.399142 -0.38414,0.4278 -0.19055,0.01807 -0.45976,-0.04728 -0.5982,-0.145221 z m -10.3911,-0.495749 c -0.073,-0.04667 -0.41615,-0.630567 -0.76251,-1.297552 -0.34637,-0.666984 -0.92454,-1.732427 -1.28483,-2.36765 -0.36031,-0.635223 -0.68699,-1.284882 -0.72598,-1.443689 -0.0391,-0.158805 -0.11193,-0.341489 -0.16207,-0.405963 -0.05,-0.06448 -0.1079,-0.324337 -0.12844,-0.577476 -0.033,-0.408068 -0.006,-0.464604 0.23402,-0.49865 0.43259,-0.06124 0.52195,0.06712 1.85738,2.66811 1.10264,2.147628 1.57766,3.436989 1.3932,3.781655 -0.13216,0.246928 -0.21293,0.274039 -0.42077,0.141215 z m 3.86258,-0.957006 c -0.36805,-0.3844 -0.66919,-0.744498 -0.66919,-0.800216 0,-0.05571 -0.0688,-0.170025 -0.15271,-0.254014 -0.2876,-0.287606 -1.00245,-1.884577 -1.11467,-2.490197 -0.17363,-0.937006 0.0229,-1.169266 0.64474,-0.761836 0.57211,0.374861 2.01541,2.937313 2.24438,3.984678 0.26721,1.222333 -0.002,1.313492 -0.95255,0.321585 z m -2.20868,-0.253925 c -0.23829,-0.460537 -0.52596,-0.993258 -0.63926,-1.183825 -0.19865,-0.3341 -0.99686,-1.781099 -1.17865,-2.136658 -0.32027,-0.626405 -0.57198,-1.318448 -0.59745,-1.642652 -0.0251,-0.318994 0.0127,-0.384371 0.23967,-0.416598 0.42768,-0.06068 0.68826,0.277675 1.54137,2.001501 0.82905,1.675207 1.04636,2.212278 1.31965,3.261516 0.21039,0.80776 0.20343,0.954056 -0.0455,0.954056 -0.13968,0 -0.34703,-0.27134 -0.63989,-0.83734 z m -5.84558,0.151456 c -0.17436,-0.186668 -0.51639,-0.71939 -0.76003,-1.183824 -0.24365,-0.464435 -0.61017,-1.106349 -0.81451,-1.426475 -0.86192,-1.350408 -1.22334,-2.478572 -0.79399,-2.478572 0.42059,0 0.89421,0.409871 1.56614,1.355336 1.22314,1.721033 1.94904,3.484242 1.60505,3.898713 -0.21623,0.260541 -0.44989,0.212454 -0.80266,-0.165178 z m 10.39712,-1.022807 c -0.88699,-0.91598 -1.97259,-2.443376 -1.97259,-2.775353 0,-0.266444 0.6185,-0.830682 0.90395,-0.824638 0.51602,0.01095 1.48419,1.040644 2.22227,2.363557 0.50634,0.907525 0.58742,1.518259 0.24291,1.83002 -0.3594,0.325266 -0.60983,0.218825 -1.39654,-0.593586 z m -9.91223,-2.135081 c -0.57373,-0.625643 -1.10785,-2.277469 -0.73641,-2.277469 0.13963,0 0.85614,0.909162 1.0283,1.304755 0.16189,0.372062 0.18721,1.078184 0.0419,1.168014 -0.0542,0.03355 -0.20449,-0.05433 -0.33375,-0.1953 z"
       id="path2" /></g></svg>
